<?xml version="1.0" encoding="UTF-8" standalone="no"?>
<!-- Created with Inkscape (http://www.inkscape.org/) -->

<svg
   width="264.58334mm"
   height="46.971489mm"
   viewBox="0 0 264.58334 46.971489"
   version="1.1"
   id="svg1"
   inkscape:version="1.3.1 (91b66b0783, 2023-11-16)"
   sodipodi:docname="UOB Buana.svg"
   xmlns:inkscape="http://www.inkscape.org/namespaces/inkscape"
   xmlns:sodipodi="http://sodipodi.sourceforge.net/DTD/sodipodi-0.dtd"
   xmlns="http://www.w3.org/2000/svg"
   xmlns:svg="http://www.w3.org/2000/svg">
  <sodipodi:namedview
     id="namedview1"
     pagecolor="#ffffff"
     bordercolor="#000000"
     borderopacity="0.25"
     inkscape:showpageshadow="2"
     inkscape:pageopacity="0.0"
     inkscape:pagecheckerboard="0"
     inkscape:deskcolor="#d1d1d1"
     inkscape:document-units="mm"
     inkscape:zoom="1"
     inkscape:cx="615"
     inkscape:cy="-93"
     inkscape:window-width="1920"
     inkscape:window-height="1094"
     inkscape:window-x="-11"
     inkscape:window-y="-11"
     inkscape:window-maximized="1"
     inkscape:current-layer="layer1" />
  <defs
     id="defs1">
    <clipPath
       clipPathUnits="userSpaceOnUse"
       id="clipPath31">
      <path
         d="m 404.102,748.819 h 189.401 v 33.608 H 404.102 Z"
         transform="translate(-593.12411,-757.48162)"
         id="path31" />
    </clipPath>
    <clipPath
       clipPathUnits="userSpaceOnUse"
       id="clipPath33">
      <path
         d="m 404.102,748.819 h 189.401 v 33.608 H 404.102 Z"
         transform="translate(-497.85811,-758.15132)"
         id="path33" />
    </clipPath>
    <clipPath
       clipPathUnits="userSpaceOnUse"
       id="clipPath35">
      <path
         d="m 404.102,748.819 h 189.401 v 33.608 H 404.102 Z"
         transform="translate(-419.44731,-780.74962)"
         id="path35" />
    </clipPath>
  </defs>
  <g
     inkscape:label="Layer 1"
     inkscape:groupmode="layer"
     id="layer1"
     transform="translate(-179.91666,-173.0375)">
    <g
       id="g1">
      <path
         id="path30"
         d="M 0,0 C 0.051,-0.975 0.146,-1.274 0.263,-1.638 0.379,-2.003 0.022,-2.302 -0.529,-2.302 h -1.967 c -0.747,0 -0.991,0.135 -1.085,0.365 -0.079,0.194 -0.123,0.366 -0.169,0.743 l -0.025,0.272 c -1.24,-1.297 -3.063,-1.766 -4.801,-1.766 -2.703,0 -4.855,1.352 -4.855,4.277 0,3.228 2.428,4 4.855,4.331 2.402,0.359 4.636,0.276 4.636,1.876 0,1.683 -1.159,1.931 -2.538,1.931 -1.039,0 -1.823,-0.295 -2.25,-0.998 L -8.913,8.424 C -9.156,7.947 -9.522,7.575 -10.075,7.575 h -1.912 c -0.551,0 -0.939,0.447 -0.861,0.993 0,0 0.029,0.211 0.238,0.703 0.986,2.325 3.683,3.077 6.325,3.077 2.842,0 6.263,-0.634 6.263,-4.056 V 0.871 C -0.022,0.578 -0.015,0.285 0,0 M -3.94,3.216 V 4.678 C -4.602,4.099 -5.981,4.072 -7.195,3.851 -8.41,3.603 -9.512,3.189 -9.512,1.754 c 0,-1.462 1.13,-1.821 2.399,-1.821 3.062,0 3.173,2.428 3.173,3.283 m -61.672,4.733 c 1.354,-0.98 2.146,-2.683 2.146,-4.53 0,-1.933 -0.739,-3.476 -2.199,-4.605 -1.452,-1.086 -2.996,-1.502 -5.528,-1.502 h -9.163 c -0.44,0 -0.805,0.358 -0.805,0.8 v 19.799 c 0,0.433 0.365,0.8 0.805,0.8 h 8.734 c 2.606,0 3.717,-0.31 4.898,-1.19 1.26,-0.92 2.05,-2.585 2.05,-4.241 0,-2.119 -0.762,-3.662 -2.489,-4.48 0.599,-0.209 1.003,-0.45 1.551,-0.851 m -6.472,2.055 c 1.907,0 2.873,0.928 2.873,2.656 0,1.688 -1.013,2.716 -2.536,2.716 h -4.664 v -5.372 z m 0.243,-9.334 c 2.53,0 3.559,0.959 3.559,2.97 0,1.922 -1.13,2.997 -3.212,2.997 h -4.917 V 0.67 Z m 35.503,2.546 V 4.678 C -37,4.099 -38.379,4.072 -39.593,3.851 -40.808,3.603 -41.91,3.189 -41.91,1.754 c 0,-1.462 1.13,-1.821 2.4,-1.821 3.062,0 3.172,2.428 3.172,3.283 M -32.398,0 c 0.052,-0.975 0.147,-1.274 0.263,-1.638 0.116,-0.365 -0.24,-0.664 -0.792,-0.664 h -1.967 c -0.746,0 -0.991,0.135 -1.085,0.365 -0.078,0.194 -0.123,0.366 -0.168,0.743 l -0.025,0.272 c -1.241,-1.297 -3.063,-1.766 -4.801,-1.766 -2.703,0 -4.855,1.352 -4.855,4.277 0,3.228 2.428,4 4.855,4.331 2.401,0.359 4.635,0.276 4.635,1.876 0,1.683 -1.159,1.931 -2.538,1.931 -1.039,0 -1.822,-0.295 -2.249,-0.998 L -41.31,8.424 c -0.244,-0.477 -0.61,-0.849 -1.162,-0.849 h -1.912 c -0.552,0 -0.94,0.447 -0.862,0.993 0,0 0.029,0.211 0.238,0.703 0.987,2.325 3.684,3.077 6.325,3.077 2.842,0 6.263,-0.634 6.263,-4.056 V 0.871 c 0,-0.293 0.008,-0.586 0.022,-0.871 m 16.554,0.387 v -2.072 c 0,-0.552 -0.451,-1.003 -1.002,-1.003 h -1.913 c -0.552,0 -1.003,0.451 -1.003,1.003 v 7.053 c 0,2.345 -0.689,3.504 -2.51,3.504 -2.125,0 -3.035,-1.186 -3.035,-4.083 v -6.474 c 0,-0.552 -0.451,-1.003 -1.002,-1.003 h -1.913 c -0.552,0 -1.003,0.451 -1.003,1.003 v 12.258 c 0,0.551 0.451,1.002 1.003,1.002 h 1.719 c 0.551,0 1.002,-0.342 1.002,-0.76 V 9.589 h 0.083 c 0.994,1.6 2.704,2.373 4.36,2.373 4.166,0 5.214,-2.345 5.214,-5.877 z m -36.027,-1.11 v 0.408 h -0.083 c -0.993,-1.6 -2.704,-2.373 -4.36,-2.373 -4.166,0 -5.214,2.345 -5.214,5.877 v 7.77 c 0,0.552 0.451,1.003 1.003,1.003 h 1.912 c 0.552,0 1.003,-0.451 1.003,-1.003 V 3.906 c 0,-2.345 0.69,-3.504 2.511,-3.504 2.124,0 3.034,1.187 3.034,4.083 v 6.474 c 0,0.552 0.451,1.003 1.003,1.003 h 1.913 c 0.551,0 1.002,-0.451 1.002,-1.003 V -1.299 c 0,-0.552 -0.451,-1.003 -1.002,-1.003 h -1.72 c -0.551,0 -1.002,0.355 -1.002,0.789 v 0.79"
         style="fill:#1a3576;fill-opacity:1;fill-rule:nonzero;stroke:none"
         transform="matrix(1.397644,0,0,-1.397644,444.10184,207.90172)"
         clip-path="url(#clipPath31)" />
      <path
         id="path32"
         d="m 0,0 c 2.53,0 3.558,0.959 3.558,2.97 0,1.922 -1.13,2.998 -3.211,2.998 H -4.571 V 0 Z m -0.244,9.334 c 1.908,0 2.873,0.928 2.873,2.656 0,1.688 -1.013,2.717 -2.535,2.717 H -4.571 V 9.334 Z M 6.229,7.279 C 7.582,6.299 8.375,4.597 8.375,2.75 8.375,0.816 7.636,-0.727 6.175,-1.856 4.724,-2.942 3.179,-3.358 0.648,-3.358 h -9.164 c -0.439,0 -0.805,0.358 -0.805,0.8 v 19.799 c 0,0.433 0.366,0.801 0.805,0.801 h 8.735 c 2.606,0 3.716,-0.311 4.897,-1.19 C 6.377,15.931 7.167,14.266 7.167,12.611 7.167,10.492 6.405,8.949 4.678,8.13 5.276,7.921 5.68,7.681 6.229,7.279 M -45.412,-3.377 c -2.739,-0.004 -4.678,0.508 -6.243,1.713 -1.97,1.503 -2.534,3.102 -2.534,6.595 v 12.524 c 0,0.433 0.361,0.8 0.799,0.8 h 3.213 c 0.436,0 0.801,-0.367 0.801,-0.8 V 5.115 c 0,-2.25 0.245,-2.87 1.15,-3.616 0.748,-0.615 1.595,-0.984 2.817,-0.984 1.216,0 2.066,0.365 2.819,0.984 0.907,0.746 1.152,1.366 1.152,3.616 v 12.34 c 0,0.433 0.37,0.8 0.801,0.8 h 3.215 c 0.438,0 0.8,-0.367 0.8,-0.8 V 4.931 c 0,-3.493 -0.574,-5.092 -2.534,-6.595 -1.57,-1.209 -3.511,-1.706 -6.256,-1.713 m 22.453,21.91 c 6.049,0 9.878,-4.322 9.878,-11.002 0,-6.672 -3.833,-10.951 -9.939,-10.951 -6.076,0 -9.842,4.292 -9.842,11.037 0,6.632 3.802,10.916 9.903,10.916 M -22.985,0.428 c 3.191,0 5.184,2.488 5.184,7.128 0,4.603 -2.016,7.127 -5.219,7.127 -3.137,0 -5.21,-2.586 -5.21,-7.037 0,-4.734 1.962,-7.218 5.245,-7.218"
         style="fill:#1a3576;fill-opacity:1;fill-rule:nonzero;stroke:none"
         transform="matrix(1.397644,0,0,-1.397644,310.95391,206.96574)"
         clip-path="url(#clipPath33)" />
      <path
         id="path34"
         d="M 0,0 V -13.51 H 2.923 V 0 c 0,0.925 0.732,1.677 1.623,1.677 C 5.438,1.677 6.169,0.925 6.169,0 V -13.51 H 9.093 V 0 c 0,0.925 0.726,1.677 1.62,1.677 0.901,0 1.625,-0.752 1.625,-1.677 v -13.51 h 4.246 c 0.934,0 1.689,-0.723 1.689,-1.616 0,-0.895 -0.755,-1.624 -1.689,-1.624 h -4.246 v -13.504 c 0,-0.928 -0.724,-1.677 -1.625,-1.677 -0.894,0 -1.62,0.749 -1.62,1.677 V -16.75 H 6.169 v -13.504 c 0,-0.928 -0.731,-1.677 -1.623,-1.677 -0.891,0 -1.623,0.749 -1.623,1.677 V -16.75 H 0 v -13.504 c 0,-0.928 -0.729,-1.677 -1.625,-1.677 -0.895,0 -1.624,0.749 -1.624,1.677 V -16.75 H -6.18 v -13.504 c 0,-0.928 -0.726,-1.677 -1.624,-1.677 -0.894,0 -1.617,0.749 -1.617,1.677 v 13.504 h -4.248 c -0.928,0 -1.676,0.729 -1.676,1.624 0,0.893 0.748,1.616 1.676,1.616 h 4.248 V 0 c 0,0.925 0.723,1.677 1.617,1.677 0.898,0 1.624,-0.752 1.624,-1.677 v -13.51 h 2.931 V 0 c 0,0.925 0.729,1.677 1.624,1.677 C -0.729,1.677 0,0.925 0,0"
         style="fill:#ed1a2b;fill-opacity:1;fill-rule:nonzero;stroke:none"
         transform="matrix(1.397644,0,0,-1.397644,201.36351,175.38135)"
         clip-path="url(#clipPath35)" />
    </g>
  </g>
</svg>
